<?xml version="1.0" encoding="UTF-8"?>
<svg id="Layer_1" xmlns="http://www.w3.org/2000/svg" version="1.1" viewBox="0 0 2458 512">
  <!-- Generator: Adobe Illustrator 29.8.1, SVG Export Plug-In . SVG Version: 2.1.1 Build 2)  -->
  <defs>
    <style>
      .st0 {
        fill: #fff;
      }

      .st1 {
        fill: #ededed;
      }
    </style>
  </defs>
  <path class="st0" d="M148.12,136.06l-22.61,36.7c-11.58-10.49-23.81-15.73-36.7-15.73-9.62,0-16.71,2.51-21.3,7.54-3.72,3.72-5.57,8.3-5.57,13.76,0,5.03,1.64,9.07,4.92,12.12,1.09.88,2.18,1.69,3.28,2.46,1.09.77,2.62,1.59,4.59,2.46,1.97.88,3.61,1.59,4.92,2.13,1.31.55,3.61,1.42,6.88,2.62,3.28,1.2,5.9,2.13,7.86,2.79l16.39,6.23c13.76,5.24,23.7,10.81,29.82,16.71,10.7,10.05,16.06,23.59,16.06,40.63,0,22.72-6.45,40.75-19.33,54.07-14.2,14.86-34.85,22.28-61.93,22.28-16.6,0-31.02-3.06-43.26-9.18-10.93-5.46-21.63-13.44-32.11-23.92l26.22-36.05c7.42,7.43,14.2,13,20.32,16.71,8.52,5.24,17.7,7.86,27.53,7.86s17.04-2.51,22.94-7.54c5.24-4.37,7.86-10.27,7.86-17.7,0-6.11-2.51-11.36-7.54-15.73-3.93-3.28-12.45-7.32-25.56-12.13l-18.02-6.23c-14.2-5.02-24.36-10.81-30.48-17.37-8.74-9.18-13.11-21.84-13.11-38.01,0-19.88,6.33-36.26,19.01-49.15,13.11-13.32,31.13-19.99,54.07-19.99s45.44,7.21,64.88,21.63Z"/>
  <path class="st0" d="M187.44,191.77h47.19v80.61c0,10.71,2.73,18.57,8.19,23.59,5.02,4.59,11.58,6.88,19.66,6.88s14.96-2.29,19.99-6.88c5.24-5.02,7.87-12.89,7.87-23.59v-80.61h47.19v85.2c0,10.05-1.04,18.73-3.11,26.05-2.08,7.32-6.5,14.26-13.27,20.81-12.89,12.67-32.44,19.01-58.66,19.01s-46.1-6.33-58.99-19.01c-10.71-10.49-16.06-25.12-16.06-43.91v-88.15Z"/>
  <path class="st0" d="M421.41,321.21v91.75h-47.19v-221.19h47.19v17.37c11.36-14.85,26.54-22.28,45.55-22.28,20.75,0,38.01,6.88,51.78,20.64,14.63,14.64,21.96,33.65,21.96,57.02s-7.76,43.15-23.27,58.66c-13.11,13.11-29.61,19.66-49.48,19.66s-36.27-7.21-46.53-21.63ZM455.49,227.49c-10.27,0-19.01,3.6-26.22,10.81-7.43,7.43-11.14,16.38-11.14,26.87,0,9.83,3.49,18.46,10.49,25.89,7.42,7.43,16.39,11.14,26.87,11.14,9.61,0,18.02-3.38,25.23-10.16,7.64-7.21,11.47-16.49,11.47-27.85,0-10.7-3.72-19.55-11.14-26.54-7.21-6.77-15.73-10.16-25.56-10.16Z"/>
  <path class="st0" d="M719.94,268.12v4.92h-109.12c0,10.05,2.95,18.35,8.85,24.9,5.68,6.12,13.76,9.18,24.25,9.18,7.86,0,14.2-1.42,19.01-4.26,3.71-1.97,7.1-6.01,10.16-12.12l44.57,4.59c-5.03,15.95-14.42,28.18-28.18,36.7-12.02,7.21-27.42,10.81-46.21,10.81-24.9,0-44.35-6.99-58.33-20.97-14.64-14.63-21.96-33.42-21.96-56.36s7.42-42.38,22.28-57.67c13.98-13.98,32.66-20.97,56.04-20.97,24.68,0,44.02,7.32,58,21.96,13.76,14.64,20.65,34.41,20.65,59.31ZM612.45,244.86h63.9c-1.75-6.99-4.92-12.67-9.5-17.04-5.9-5.46-13.33-8.19-22.28-8.19-9.62,0-17.59,3.17-23.92,9.5-4.37,4.59-7.1,9.83-8.19,15.73Z"/>
  <path class="st0" d="M749.43,337.92v-146.15h47.19v22.94c4.59-8.96,10.7-15.73,18.35-20.32,6.55-4.15,14.96-6.23,25.23-6.23,5.46,0,10.59.77,15.4,2.29l-2.62,44.24c-6.55-3.49-13.66-5.24-21.3-5.24-9.62,0-17.48,3.28-23.59,9.83-7.65,8.09-11.47,21.19-11.47,39.32v59.31h-47.19Z"/>
  <path class="st0" d="M922.45,321.21v91.75h-47.19v-221.19h47.19v17.37c11.36-14.85,26.54-22.28,45.55-22.28,20.75,0,38.01,6.88,51.78,20.64,14.63,14.64,21.96,33.65,21.96,57.02s-7.76,43.15-23.27,58.66c-13.11,13.11-29.61,19.66-49.48,19.66s-36.27-7.21-46.53-21.63ZM956.53,227.49c-10.27,0-19.01,3.6-26.22,10.81-7.43,7.43-11.14,16.38-11.14,26.87,0,9.83,3.49,18.46,10.49,25.89,7.42,7.43,16.39,11.14,26.87,11.14,9.61,0,18.02-3.38,25.23-10.16,7.64-7.21,11.47-16.49,11.47-27.85,0-10.7-3.72-19.55-11.14-26.54-7.21-6.77-15.73-10.16-25.56-10.16Z"/>
  <path class="st0" d="M1071.55,99.03h47.19v238.89h-47.19V99.03Z"/>
  <path class="st0" d="M1147.9,191.77h47.19v80.61c0,10.71,2.73,18.57,8.19,23.59,5.02,4.59,11.58,6.88,19.66,6.88s14.96-2.29,19.99-6.88c5.24-5.02,7.87-12.89,7.87-23.59v-80.61h47.19v85.2c0,10.05-1.04,18.73-3.11,26.05-2.08,7.32-6.5,14.26-13.27,20.81-12.89,12.67-32.44,19.01-58.66,19.01s-46.1-6.33-58.99-19.01c-10.71-10.49-16.06-25.12-16.06-43.91v-88.15Z"/>
  <path class="st0" d="M1325.83,337.92v-146.15h47.19v22.94c4.59-8.96,10.7-15.73,18.35-20.32,6.55-4.15,14.96-6.23,25.23-6.23,5.46,0,10.59.77,15.4,2.29l-2.62,44.24c-6.55-3.49-13.66-5.24-21.3-5.24-9.62,0-17.48,3.28-23.59,9.83-7.65,8.09-11.47,21.19-11.47,39.32v59.31h-47.19Z"/>
  <path class="st0" d="M1549.97,208.16v-16.38h47.19v146.15h-47.19v-17.7c-9.83,15.07-24.25,22.61-43.26,22.61-22.5,0-40.75-7.42-54.73-22.28-14.2-15.07-21.3-33.31-21.3-54.72,0-24.25,7.54-43.91,22.61-58.99,13.32-13.32,30.26-19.99,50.79-19.99s35.39,7.1,45.88,21.3ZM1515.89,227.49c-10.27,0-18.9,3.5-25.89,10.49-7.21,7.21-10.81,16.06-10.81,26.54s3.28,19.23,9.83,26.22c7.21,7.65,16.49,11.47,27.85,11.47,9.61,0,17.8-3.38,24.58-10.16,7.64-7.21,11.47-16.38,11.47-27.53s-3.6-20.1-10.81-26.87c-6.99-6.77-15.73-10.16-26.22-10.16Z"/>
  <path class="st0" d="M1626.32,99.03h47.19v238.89h-47.19V99.03Z"/>
  <path class="st1" d="M1817.37,114.44c34.51,0,62.7,10.6,84.54,31.79,22.72,22.07,34.08,49.59,34.08,82.58s-11.36,59.86-34.08,81.92c-22.07,21.41-50.25,32.11-84.54,32.11s-62.92-10.7-85.2-32.11c-10.71-10.05-19.06-22.12-25.07-36.21-6.01-14.09-9.01-29.11-9.01-45.06s3.11-30.42,9.34-45.39c6.23-14.96,14.36-27.47,24.41-37.52,21.41-21.41,49.92-32.11,85.53-32.11ZM1817.04,160.97c-19.45,0-35.39,6.23-47.84,18.68-12.89,12.45-19.33,28.95-19.33,49.48s6.66,36.05,19.99,49.15c12.67,12.02,28.29,18.02,46.86,18.02,19.88,0,36.05-6.23,48.5-18.68,12.67-12.23,19.01-28.51,19.01-48.83s-6.34-36.48-19.01-49.15c-12.89-12.45-28.95-18.68-48.17-18.68Z"/>
  <path class="st1" d="M1959.26,337.92v-146.15h47.19v17.04c9.18-13.76,22.83-20.65,40.96-20.65,11.14,0,20.32,2.19,27.53,6.55,7.64,4.37,13.54,11.14,17.7,20.32,4.59-7.64,10.81-13.87,18.68-18.68,8.95-5.46,19.33-8.19,31.13-8.19,17.7,0,31.35,4.59,40.96,13.76,10.05,9.62,15.07,24.14,15.07,43.58v92.41h-47.19v-74.06c0-13.76-2.08-23.27-6.23-28.51-4.15-5.24-9.83-7.86-17.04-7.86-7.86,0-13.98,2.95-18.35,8.85-4.81,6.12-7.21,15.73-7.21,28.84v72.75h-47.19v-76.03c0-13.98-2.51-23.48-7.54-28.51-3.93-3.93-9.18-5.9-15.73-5.9s-12.24,1.97-16.38,5.9c-6.12,5.9-9.18,15.84-9.18,29.82v74.71h-47.19Z"/>
  <path class="st1" d="M2226.65,337.92v-146.15h47.19v17.37c11.14-14.2,26.22-21.3,45.22-21.3s32.11,4.92,41.94,14.75c9.83,9.83,14.75,24.14,14.75,42.93v92.41h-47.19v-75.04c0-14.2-2.62-23.92-7.86-29.17-4.37-4.37-10.38-6.55-18.02-6.55-8.31,0-14.86,2.62-19.66,7.86-6.12,6.12-9.18,15.4-9.18,27.85v75.04h-47.19Z"/>
  <path class="st1" d="M2410.98,149.01c-5.36-5.35-8.03-11.85-8.03-19.5s2.67-14.14,8.03-19.5c5.35-5.35,11.85-8.03,19.5-8.03s14.14,2.68,19.5,8.03c5.35,5.36,8.03,11.85,8.03,19.5s-2.68,14.15-8.03,19.5c-5.36,5.36-11.85,8.03-19.5,8.03s-14.15-2.67-19.5-8.03ZM2406.88,191.77h47.19v146.15h-47.19v-146.15Z"/>
</svg>